<svg xmlns="http://www.w3.org/2000/svg" xmlns:xlink="http://www.w3.org/1999/xlink" id="Layer_1" width="32" height="32" x="0" style="enable-background:new 0 0 32 32" y="0" version="1.1" viewBox="0 0 32 32" xml:space="preserve"><style type="text/css">.st0{fill-opacity:0}</style><path d="M16,2C8.4,2,2,8.4,2,16s6.4,14,14,14s14-6.4,14-14S23.6,2,16,2z M24,17h-7v7h-2v-7H8v-2h7V8h2v7h7V17z"/><polygon id="inner-path" points="24 17 17 17 17 24 15 24 15 17 8 17 8 15 15 15 15 8 17 8 17 15 24 15" class="st0"/></svg>