<svg xmlns="http://www.w3.org/2000/svg" xmlns:xlink="http://www.w3.org/1999/xlink" x="0" y="0" version="1.1" viewBox="0 0 48 48" xml:space="preserve" style="enable-background:new 0 0 48 48"><g id="backpack"><path id="backpack_1_" d="M17,24 v-2 M33,34V18c0-2.209-1.791-4-4-4H19c-2.209,0-4,1.791-4,4v16c0,2.209,1.791,4,4,4h10C31.209,38,33,36.209,33,34z M28,14 c0-2.209-1.791-4-4-4s-4,1.791-4,4 M31,23v-5c0-1.105-0.895-2-2-2h-6h-4c-1.105,0-2,0.895-2,2v3 M31,29H17v2" style="fill:none;stroke:#000;stroke-width:.72;stroke-linejoin:round;stroke-miterlimit:10"/></g></svg>