<svg xmlns="http://www.w3.org/2000/svg" xmlns:xlink="http://www.w3.org/1999/xlink" x="0" y="0" version="1.1" viewBox="0 0 48 48" xml:space="preserve" style="enable-background:new 0 0 48 48"><g id="beijing_municipal"><rect style="fill:#fff" width="48" height="48"/><g id="beijing_municipal_1_"><line style="fill:none;stroke:#000;stroke-width:.72;stroke-linejoin:round;stroke-miterlimit:10" x1="11" x2="11" y1="26" y2="23"/><line style="fill:none;stroke:#000;stroke-width:.72;stroke-linejoin:round;stroke-miterlimit:10" x1="13" x2="13" y1="26" y2="23"/><line style="fill:none;stroke:#000;stroke-width:.72;stroke-linejoin:round;stroke-miterlimit:10" x1="24" x2="24" y1="26" y2="24"/><line style="fill:none;stroke:#000;stroke-width:.72;stroke-linejoin:round;stroke-miterlimit:10" x1="19" x2="19" y1="26" y2="24"/><line style="fill:none;stroke:#000;stroke-width:.72;stroke-linejoin:round;stroke-miterlimit:10" x1="29" x2="29" y1="26" y2="24"/><line style="fill:none;stroke:#000;stroke-width:.72;stroke-linejoin:round;stroke-miterlimit:10" x1="27" x2="27" y1="26" y2="23"/><line style="fill:none;stroke:#000;stroke-width:.72;stroke-linejoin:round;stroke-miterlimit:10" x1="15" x2="15" y1="26" y2="23"/><line style="fill:none;stroke:#000;stroke-width:.72;stroke-linejoin:round;stroke-miterlimit:10" x1="17" x2="17" y1="26" y2="23"/><line style="fill:none;stroke:#000;stroke-width:.72;stroke-linejoin:round;stroke-miterlimit:10" x1="21" x2="21" y1="26" y2="23"/><line style="fill:none;stroke:#000;stroke-width:.72;stroke-linejoin:round;stroke-miterlimit:10" x1="31" x2="31" y1="26" y2="23"/><line style="fill:none;stroke:#000;stroke-width:.72;stroke-linejoin:round;stroke-miterlimit:10" x1="33" x2="33" y1="26" y2="23"/><line style="fill:none;stroke:#000;stroke-width:.72;stroke-linejoin:round;stroke-miterlimit:10" x1="35" x2="35" y1="26" y2="23"/><line style="fill:none;stroke:#000;stroke-width:.72;stroke-linejoin:round;stroke-miterlimit:10" x1="37" x2="37" y1="26" y2="23"/><path style="fill:none;stroke:#000;stroke-width:.72;stroke-linecap:round;stroke-linejoin:round;stroke-miterlimit:10" d="M11,18h26v-1c-2,0-5-2-6-4H17c-1,2-4,4-6,4V18z"/><g><line style="fill:none;stroke:#000;stroke-width:.72;stroke-linecap:round;stroke-linejoin:round;stroke-miterlimit:10" x1="34" x2="34" y1="20" y2="18"/><line style="fill:none;stroke:#000;stroke-width:.72;stroke-linecap:round;stroke-linejoin:round;stroke-miterlimit:10" x1="14.042" x2="14.042" y1="20" y2="18"/><line style="fill:none;stroke:#000;stroke-width:.72;stroke-miterlimit:10" x1="26" x2="25" y1="30" y2="30"/><line style="fill:none;stroke:#000;stroke-width:.72;stroke-miterlimit:10" x1="25" x2="27" y1="32" y2="32"/><line style="fill:none;stroke:#000;stroke-width:.72;stroke-miterlimit:10" x1="27" x2="25" y1="32" y2="32"/><line style="fill:none;stroke:#000;stroke-width:.72;stroke-miterlimit:10" x1="25" x2="28" y1="34" y2="34"/><line style="fill:none;stroke:#000;stroke-width:.72;stroke-miterlimit:10" x1="28" x2="25" y1="34" y2="34"/><line style="fill:none;stroke:#000;stroke-width:.72;stroke-miterlimit:10" x1="25" x2="29" y1="36" y2="36"/><line style="fill:none;stroke:#000;stroke-width:.72;stroke-miterlimit:10" x1="29" x2="25" y1="36" y2="36"/><line style="fill:none;stroke:#000;stroke-width:.72;stroke-miterlimit:10" x1="25" x2="30" y1="38" y2="38"/><line style="fill:none;stroke:#000;stroke-width:.72;stroke-miterlimit:10" x1="32" x2="28" y1="30" y2="30"/><line style="fill:none;stroke:#000;stroke-width:.72;stroke-miterlimit:10" x1="29" x2="33" y1="32" y2="32"/><line style="fill:none;stroke:#000;stroke-width:.72;stroke-miterlimit:10" x1="30" x2="35" y1="34" y2="34"/><line style="fill:none;stroke:#000;stroke-width:.72;stroke-miterlimit:10" x1="31" x2="37" y1="36" y2="36"/><line style="fill:none;stroke:#000;stroke-width:.72;stroke-miterlimit:10" x1="32" x2="39" y1="38" y2="38"/><line style="fill:none;stroke:#000;stroke-width:.72;stroke-miterlimit:10" x1="22" x2="25" y1="30" y2="30"/><line style="fill:none;stroke:#000;stroke-width:.72;stroke-miterlimit:10" x1="23" x2="21" y1="32" y2="32"/><line style="fill:none;stroke:#000;stroke-width:.72;stroke-miterlimit:10" x1="21" x2="25" y1="32" y2="32"/><line style="fill:none;stroke:#000;stroke-width:.72;stroke-miterlimit:10" x1="23" x2="20" y1="34" y2="34"/><line style="fill:none;stroke:#000;stroke-width:.72;stroke-miterlimit:10" x1="20" x2="25" y1="34" y2="34"/><line style="fill:none;stroke:#000;stroke-width:.72;stroke-miterlimit:10" x1="23" x2="19" y1="36" y2="36"/><line style="fill:none;stroke:#000;stroke-width:.72;stroke-miterlimit:10" x1="19" x2="25" y1="36" y2="36"/><line style="fill:none;stroke:#000;stroke-width:.72;stroke-miterlimit:10" x1="25" x2="18" y1="38" y2="38"/><line style="fill:none;stroke:#000;stroke-width:.72;stroke-miterlimit:10" x1="16" x2="20" y1="30" y2="30"/><line style="fill:none;stroke:#000;stroke-width:.72;stroke-miterlimit:10" x1="19" x2="15" y1="32" y2="32"/><line style="fill:none;stroke:#000;stroke-width:.72;stroke-miterlimit:10" x1="18" x2="13" y1="34" y2="34"/><line style="fill:none;stroke:#000;stroke-width:.72;stroke-miterlimit:10" x1="17" x2="11" y1="36" y2="36"/><line style="fill:none;stroke:#000;stroke-width:.72;stroke-miterlimit:10" x1="16" x2="9" y1="38" y2="38"/><line style="fill:none;stroke:#000;stroke-width:.72;stroke-linejoin:round;stroke-miterlimit:10" x1="17" x2="17" y1="13" y2="11"/><line style="fill:none;stroke:#000;stroke-width:.72;stroke-linejoin:round;stroke-miterlimit:10" x1="31" x2="31" y1="13" y2="11"/><line style="fill:none;stroke:#000;stroke-width:.72;stroke-linejoin:round;stroke-miterlimit:10" x1="39" x2="9" y1="28" y2="28"/><line style="fill:none;stroke:#000;stroke-width:.72;stroke-linejoin:round;stroke-miterlimit:10" x1="39" x2="9" y1="26" y2="26"/></g><path style="fill:none;stroke:#000;stroke-width:.72;stroke-linecap:round;stroke-linejoin:round;stroke-miterlimit:10" d="M9,22v1h30v-1c-2,0-4-1-5-2H14C13,21,11,22,9,22z"/></g></g></svg>