<svg xmlns="http://www.w3.org/2000/svg" xmlns:xlink="http://www.w3.org/1999/xlink" x="0" y="0" version="1.1" viewBox="0 0 48 48" xml:space="preserve" style="enable-background:new 0 0 48 48"><g id="cargo--ship"><path id="cargo--ship_1_" d="M25.5,34h-3v-2h3V34z M19,18h2 M25,22h2 M27,26h2 M19,22h4 M21,26h4 M21,33h1.5 M25.5,33H27 M29,32V12l-2-3h-6l-2,3v20c0,4,5,7,5,7 S29,36,29,32z M22,9v2h4V9 M21,14v16 M23,14v16 M25,14v16 M27,14v16 M19,14h10 M19,30h10 M23,18h4" style="fill:none;stroke:#000;stroke-width:.72;stroke-linejoin:round;stroke-miterlimit:10"/></g></svg>