<svg xmlns="http://www.w3.org/2000/svg" xmlns:xlink="http://www.w3.org/1999/xlink" x="0" y="0" version="1.1" viewBox="0 0 48 48" xml:space="preserve" style="enable-background:new 0 0 48 48"><g id="chart--sunburst"><path id="chart--sunburst_1_" d="M29,24c0,2.761-2.239,5-5,5s-5-2.239-5-5s2.239-5,5-5S29,21.239,29,24z M24,14c-5.523,0-10,4.477-10,10s4.477,10,10,10 s10-4.477,10-10S29.523,14,24,14z M29,24h10c0-8.284-6.716-15-15-15v10 M20.428,27.572l-7.034,7.034C16.108,37.321,19.858,39,24,39 V29 M20.441,20.441c0,0-7.048-7.048-7.048-7.047C10.679,16.108,9,19.858,9,24h10" style="fill:none;stroke:#000;stroke-width:.72;stroke-linecap:round;stroke-linejoin:round;stroke-miterlimit:10"/></g></svg>