<svg xmlns="http://www.w3.org/2000/svg" xmlns:xlink="http://www.w3.org/1999/xlink" x="0" y="0" version="1.1" viewBox="0 0 48 48" xml:space="preserve" style="enable-background:new 0 0 48 48"><g id="connected--nodes--to--the--cloud"><g id="connected--nodes--to--the--cloud_1_"><path style="fill:none;stroke:#000;stroke-width:.72;stroke-linejoin:round;stroke-miterlimit:10" d="M26.5,36.5 c0,1.381-1.119,2.5-2.5,2.5c-1.381,0-2.5-1.119-2.5-2.5c0-1.381,1.119-2.5,2.5-2.5C25.381,34,26.5,35.119,26.5,36.5z M28,27v4 c0,1.105,0.896,2,2,2h4 M14,33h4c1.105,0,2-0.895,2-2v-4 M24,27v7"/><circle style="fill:none;stroke:#000;stroke-width:.72;stroke-miterlimit:10" cx="12" cy="33" r="2"/><circle style="fill:none;stroke:#000;stroke-width:.72;stroke-miterlimit:10" cx="36" cy="33" r="2"/><path style="fill:none;stroke:#000;stroke-width:.72;stroke-linejoin:round;stroke-miterlimit:10" d="M34.5,27 c2.485,0,4.5-2.015,4.5-4.5c0-2.485-2.015-4.5-4.5-4.5H34c0-4.971-4.029-9-9-9c-3.529,0-6.566,2.042-8.041,5H15.5 C11.91,14,9,16.91,9,20.5c0,3.59,2.91,6.5,6.5,6.5H34.5"/></g></g></svg>