<svg xmlns="http://www.w3.org/2000/svg" xmlns:xlink="http://www.w3.org/1999/xlink" x="0" y="0" version="1.1" viewBox="0 0 48 48" xml:space="preserve" style="enable-background:new 0 0 48 48"><g id="coronavirus"><g id="coronavirus_1_"><circle style="fill:none;stroke:#000;stroke-width:.72;stroke-miterlimit:10" cx="24" cy="24" r="11"/><line style="fill:none;stroke:#000;stroke-width:.72;stroke-miterlimit:10" x1="24" x2="24" y1="9" y2="13"/><line style="fill:none;stroke:#000;stroke-width:.72;stroke-miterlimit:10" x1="21" x2="27" y1="9" y2="9"/><line style="fill:none;stroke:#000;stroke-width:.72;stroke-miterlimit:10" x1="24" x2="24" y1="35" y2="39"/><line style="fill:none;stroke:#000;stroke-width:.72;stroke-miterlimit:10" x1="21" x2="27" y1="39" y2="39"/><line style="fill:none;stroke:#000;stroke-width:.72;stroke-miterlimit:10" x1="9" x2="13" y1="24" y2="24"/><line style="fill:none;stroke:#000;stroke-width:.72;stroke-miterlimit:10" x1="9" x2="9" y1="27" y2="21"/><line style="fill:none;stroke:#000;stroke-width:.72;stroke-miterlimit:10" x1="35" x2="39" y1="24" y2="24"/><line style="fill:none;stroke:#000;stroke-width:.72;stroke-miterlimit:10" x1="39" x2="39" y1="27" y2="21"/><line style="fill:none;stroke:#000;stroke-width:.72;stroke-miterlimit:10" x1="13.393" x2="16.222" y1="13.393" y2="16.222"/><line style="fill:none;stroke:#000;stroke-width:.72;stroke-miterlimit:10" x1="11.272" x2="15.515" y1="15.515" y2="11.272"/><line style="fill:none;stroke:#000;stroke-width:.72;stroke-miterlimit:10" x1="31.778" x2="34.607" y1="31.778" y2="34.607"/><line style="fill:none;stroke:#000;stroke-width:.72;stroke-miterlimit:10" x1="32.485" x2="36.728" y1="36.728" y2="32.485"/><line style="fill:none;stroke:#000;stroke-width:.72;stroke-miterlimit:10" x1="13.393" x2="16.222" y1="34.607" y2="31.778"/><line style="fill:none;stroke:#000;stroke-width:.72;stroke-miterlimit:10" x1="15.515" x2="11.272" y1="36.728" y2="32.485"/><line style="fill:none;stroke:#000;stroke-width:.72;stroke-miterlimit:10" x1="31.778" x2="34.607" y1="16.222" y2="13.393"/><line style="fill:none;stroke:#000;stroke-width:.72;stroke-miterlimit:10" x1="36.728" x2="32.485" y1="15.515" y2="11.272"/><circle style="fill:none;stroke:#000;stroke-width:.72;stroke-miterlimit:10" cx="24" cy="24" r="2"/><circle style="fill:none;stroke:#000;stroke-width:.72;stroke-miterlimit:10" cx="19" cy="19" r="2"/><circle style="fill:none;stroke:#000;stroke-width:.72;stroke-miterlimit:10" cx="17" cy="24" r="1"/><circle style="fill:none;stroke:#000;stroke-width:.72;stroke-miterlimit:10" cx="31" cy="24" r="1"/><circle style="fill:none;stroke:#000;stroke-width:.72;stroke-miterlimit:10" cx="24" cy="17" r="1"/><circle style="fill:none;stroke:#000;stroke-width:.72;stroke-miterlimit:10" cx="24" cy="31" r="1"/><circle style="fill:none;stroke:#000;stroke-width:.72;stroke-miterlimit:10" cx="29" cy="19" r="2"/><circle style="fill:none;stroke:#000;stroke-width:.72;stroke-miterlimit:10" cx="19" cy="29" r="2"/><circle style="fill:none;stroke:#000;stroke-width:.72;stroke-miterlimit:10" cx="29" cy="29" r="2"/></g></g></svg>