<svg xmlns="http://www.w3.org/2000/svg" xmlns:xlink="http://www.w3.org/1999/xlink" x="0" y="0" version="1.1" viewBox="0 0 48 48" xml:space="preserve" style="enable-background:new 0 0 48 48"><g id="feedback--02"><g id="feedback_2_"><circle style="fill:none;stroke:#000;stroke-width:.72;stroke-linejoin:round;stroke-miterlimit:10" cx="24" cy="24" r="3"/><path style="fill:none;stroke:#000;stroke-width:.72;stroke-miterlimit:10" d="M24,18V9 M21,15l3,3l3-3 M18.794,21L11,16.5 M14.696,22.098L18.794,21l-1.098-4.098 M18.794,27L11,31.5 M17.696,31.098L18.794,27l-4.098-1.098 M24,30v9 M27,33l-3-3l-3,3 M29.206,27L37,31.5 M33.304,25.902L29.206,27l1.098,4.098 M29.206,21L37,16.5 M30.304,16.902L29.206,21l4.098,1.098"/></g></g></svg>