<svg xmlns="http://www.w3.org/2000/svg" xmlns:xlink="http://www.w3.org/1999/xlink" x="0" y="0" version="1.1" viewBox="0 0 48 48" xml:space="preserve" style="enable-background:new 0 0 48 48"><g id="global--markets--bar"><g id="global--markets--bar_1_"><g><rect style="fill:none;stroke:#000;stroke-width:.72;stroke-miterlimit:10" width="2" height="3" x="27" y="19"/><rect style="fill:none;stroke:#000;stroke-width:.72;stroke-miterlimit:10" width="2" height="6" x="31" y="16"/><rect style="fill:none;stroke:#000;stroke-width:.72;stroke-miterlimit:10" width="2" height="9" x="35" y="13"/></g><path style="fill:none;stroke:#000;stroke-width:.72;stroke-miterlimit:10" d="M33.002,12C30.495,10.116,27.378,9,24,9"/><line style="fill:none;stroke:#000;stroke-width:.72;stroke-miterlimit:10" x1="36.69" x2="24" y1="32" y2="32"/><path style="fill:none;stroke:#000;stroke-width:.72;stroke-miterlimit:10" d="M24,24.041"/><path style="fill:none;stroke:#000;stroke-width:.72;stroke-miterlimit:10" d="M12.753,33.925C15.501,37.037,19.521,39,24,39"/><line style="fill:none;stroke:#000;stroke-width:.72;stroke-miterlimit:10" x1="11.309" x2="29" y1="16" y2="16"/><path style="fill:none;stroke:#000;stroke-width:.72;stroke-linejoin:round;stroke-miterlimit:10" d="M24,9 C15.716,9,9,15.716,9,24l30,0c0,8.284-6.716,15-15,15L24,9"/><g><rect style="fill:none;stroke:#000;stroke-width:.72;stroke-linejoin:round;stroke-miterlimit:10" width="12" height="6" x="10" y="26"/><circle style="fill:none;stroke:#000;stroke-width:.72;stroke-linejoin:round;stroke-miterlimit:10" cx="16" cy="29" r="1"/><path style="fill:none;stroke:#000;stroke-width:.72;stroke-linejoin:round;stroke-miterlimit:10" d="M10,28 c1.105,0,2-0.895,2-2"/><path style="fill:none;stroke:#000;stroke-width:.72;stroke-linejoin:round;stroke-miterlimit:10" d="M12,32 c0-1.105-0.895-2-2-2"/><path style="fill:none;stroke:#000;stroke-width:.72;stroke-linejoin:round;stroke-miterlimit:10" d="M22,30 c-1.105,0-2,0.895-2,2"/><path style="fill:none;stroke:#000;stroke-width:.72;stroke-linejoin:round;stroke-miterlimit:10" d="M20,26 c0,1.105,0.895,2,2,2"/><line style="fill:none;stroke:#000;stroke-width:.72;stroke-linejoin:round;stroke-miterlimit:10" x1="13" x2="12" y1="29" y2="29"/><line style="fill:none;stroke:#000;stroke-width:.72;stroke-linejoin:round;stroke-miterlimit:10" x1="20" x2="19" y1="29" y2="29"/></g><path style="fill:none;stroke:#000;stroke-width:.72;stroke-linejoin:round;stroke-miterlimit:10" d="M29.545,14 c-1.373-3.069-3.369-5-5.59-5c-4.142,0-7.5,6.716-7.5,15"/><path style="fill:none;stroke:#000;stroke-width:.72;stroke-linejoin:round;stroke-miterlimit:10" d="M18.406,33.991 C19.779,37.065,21.777,39,24,39c4.142,0,7.5-6.716,7.5-15"/></g></g></svg>