<svg xmlns="http://www.w3.org/2000/svg" xmlns:xlink="http://www.w3.org/1999/xlink" x="0" y="0" version="1.1" viewBox="0 0 48 48" xml:space="preserve" style="enable-background:new 0 0 48 48"><g id="global--exchange"><g id="global--exchange_1_"><polyline style="fill:none;stroke:#000;stroke-width:.72;stroke-linejoin:round;stroke-miterlimit:10" points="19 29 19 36 39 36 39 24.5 27 24.5"/><path style="fill:none;stroke:#000;stroke-width:.72;stroke-linejoin:round;stroke-miterlimit:10" d="M36,36 c0-1.657,1.343-3,3-3"/><path style="fill:none;stroke:#000;stroke-width:.72;stroke-linejoin:round;stroke-miterlimit:10" d="M39,27.5 c-1.657,0-3-1.343-3-3"/><line style="fill:none;stroke:#000;stroke-width:.72;stroke-miterlimit:10" x1="10" x2="13" y1="33" y2="33"/><line style="fill:none;stroke:#000;stroke-width:.72;stroke-miterlimit:10" x1="14" x2="17" y1="33" y2="33"/><polyline style="fill:none;stroke:#000;stroke-width:.72;stroke-miterlimit:10" points="12 31 10 33 12 35"/><line style="fill:none;stroke:#000;stroke-width:.72;stroke-miterlimit:10" x1="38" x2="34.75" y1="15.5" y2="15.5"/><line style="fill:none;stroke:#000;stroke-width:.72;stroke-miterlimit:10" x1="33" x2="30" y1="15.5" y2="15.5"/><polyline style="fill:none;stroke:#000;stroke-width:.72;stroke-miterlimit:10" points="36 17.5 38 15.5 36 13.5"/><path style="fill:none;stroke:#000;stroke-width:.72;stroke-linejoin:round;stroke-miterlimit:10" d="M19,33 c1.657,0,3,1.343,3,3"/><circle style="fill:none;stroke:#000;stroke-width:.72;stroke-linejoin:round;stroke-miterlimit:10" cx="29" cy="30.5" r="2.5"/><g><circle style="fill:none;stroke:#000;stroke-width:.72;stroke-linejoin:round;stroke-miterlimit:10" cx="19" cy="20" r="9"/><ellipse style="fill:none;stroke:#000;stroke-width:.72;stroke-linejoin:round;stroke-miterlimit:10" cx="19" cy="20" rx="4.5" ry="9"/><line style="fill:none;stroke:#000;stroke-width:.72;stroke-linejoin:round;stroke-miterlimit:10" x1="19" x2="19" y1="29" y2="11"/><line style="fill:none;stroke:#000;stroke-width:.72;stroke-linejoin:round;stroke-miterlimit:10" x1="10" x2="28" y1="20" y2="20"/><line style="fill:none;stroke:#000;stroke-width:.72;stroke-linejoin:round;stroke-miterlimit:10" x1="11.204" x2="26.796" y1="15.5" y2="15.5"/><line style="fill:none;stroke:#000;stroke-width:.72;stroke-linejoin:round;stroke-miterlimit:10" x1="11.204" x2="26.796" y1="24.5" y2="24.5"/></g></g></g></svg>