<svg xmlns="http://www.w3.org/2000/svg" xmlns:xlink="http://www.w3.org/1999/xlink" x="0" y="0" version="1.1" viewBox="0 0 48 48" xml:space="preserve" style="enable-background:new 0 0 48 48"><g id="growth"><g id="growth_1_"><g><line style="fill:none;stroke:#000;stroke-width:.72;stroke-linejoin:round;stroke-miterlimit:10" x1="31" x2="37" y1="38" y2="38"/><g><path style="fill:none;stroke:#000;stroke-width:.72;stroke-linejoin:round;stroke-miterlimit:10" d="M14,33v5"/><line style="fill:none;stroke:#000;stroke-width:.72;stroke-linejoin:round;stroke-miterlimit:10" x1="11" x2="27" y1="38" y2="38"/><path style="fill:none;stroke:#000;stroke-width:.72;stroke-linejoin:round;stroke-miterlimit:10" d="M24,24v14 M24,31l2-2"/><path style="fill:none;stroke:#000;stroke-width:.72;stroke-linejoin:round;stroke-miterlimit:10" d="M34,15v23"/><path id="eye_7_" d="M14.177,32.823c0,0,1.655,0.689,2.995-0.651c1.34-1.34,0.651-2.995,0.651-2.995s-1.655-0.689-2.995,0.651 C13.488,31.168,14.177,32.823,14.177,32.823z" style="fill:none;stroke:#000;stroke-width:.72;stroke-linejoin:round;stroke-miterlimit:10"/><path id="eye_6_" d="M13.172,29.828c-1.34-1.34-2.995-0.651-2.995-0.651s-0.689,1.655,0.651,2.995c1.34,1.34,2.995,0.651,2.995,0.651 C13.823,32.823,14.512,31.168,13.172,29.828z" style="fill:none;stroke:#000;stroke-width:.72;stroke-linejoin:round;stroke-miterlimit:10"/><path id="eye_5_" d="M24.177,23.823c0,0,1.655,0.689,2.995-0.651c1.34-1.34,0.651-2.995,0.651-2.995s-1.655-0.689-2.995,0.651 C23.488,22.168,24.177,23.823,24.177,23.823z" style="fill:none;stroke:#000;stroke-width:.72;stroke-linejoin:round;stroke-miterlimit:10"/><path id="eye_4_" d="M23.172,20.828c-1.34-1.34-2.995-0.651-2.995-0.651s-0.689,1.655,0.651,2.995c1.34,1.34,2.995,0.651,2.995,0.651 C23.823,23.823,24.512,22.168,23.172,20.828z" style="fill:none;stroke:#000;stroke-width:.72;stroke-linejoin:round;stroke-miterlimit:10"/><path id="eye_3_" d="M34.177,14.823c0,0,1.655,0.689,2.995-0.651c1.34-1.34,0.651-2.995,0.651-2.995s-1.655-0.689-2.995,0.651 C33.488,13.168,34.177,14.823,34.177,14.823z" style="fill:none;stroke:#000;stroke-width:.72;stroke-linejoin:round;stroke-miterlimit:10"/><path id="eye_2_" d="M33.172,11.828c-1.34-1.34-2.995-0.651-2.995-0.651s-0.689,1.655,0.651,2.995s2.995,0.651,2.995,0.651 C33.823,14.823,34.512,13.168,33.172,11.828z" style="fill:none;stroke:#000;stroke-width:.72;stroke-linejoin:round;stroke-miterlimit:10"/></g></g><line style="fill:none;stroke:#000;stroke-width:.72;stroke-linejoin:round;stroke-miterlimit:10" x1="34" x2="36" y1="22" y2="20"/><line style="fill:none;stroke:#000;stroke-width:.72;stroke-linejoin:round;stroke-miterlimit:10" x1="34" x2="32" y1="27" y2="25"/></g></g></svg>