<svg xmlns="http://www.w3.org/2000/svg" xmlns:xlink="http://www.w3.org/1999/xlink" x="0" y="0" version="1.1" viewBox="0 0 48 48" xml:space="preserve" style="enable-background:new 0 0 48 48"><g id="managing--contractual--flow"><g id="managing--contractual--flow_1_"><path style="fill:none;stroke:#000;stroke-width:.72;stroke-miterlimit:10" d="M36,10v5h-5 M17,33h-5v5 M36,15 c-2.737-3.643-7.093-6-12-6C15.716,9,9,15.716,9,24 M12,33c2.737,3.643,7.093,6,12,6c8.284,0,15-6.716,15-15"/><polygon style="fill:none;stroke:#000;stroke-width:.72;stroke-linejoin:round;stroke-miterlimit:10" points="30 31 30 20 26 16 18 16 18 31"/><polyline style="fill:none;stroke:#000;stroke-width:.72;stroke-linejoin:round;stroke-miterlimit:10" points="26 16 26 20 30 20"/><line style="fill:none;stroke:#000;stroke-width:.72;stroke-miterlimit:10" x1="20" x2="28" y1="25" y2="25"/><line style="fill:none;stroke:#000;stroke-width:.72;stroke-miterlimit:10" x1="20" x2="28" y1="27" y2="27"/><line style="fill:none;stroke:#000;stroke-width:.72;stroke-miterlimit:10" x1="20" x2="28" y1="23" y2="23"/></g></g></svg>