<svg xmlns="http://www.w3.org/2000/svg" xmlns:xlink="http://www.w3.org/1999/xlink" x="0" y="0" version="1.1" viewBox="0 0 48 48" xml:space="preserve" style="enable-background:new 0 0 48 48"><g id="natural--language--understanding"><g id="natural--language--understanding_1_"><polyline style="fill:none;stroke:#000;stroke-width:.72;stroke-miterlimit:10" points="19 9 22 12 19 15"/><path style="fill:none;stroke:#000;stroke-width:.72;stroke-linejoin:round;stroke-miterlimit:10" d="M22,38H9V22h13V38z M11,30h9 M11,26h9 M11,34h9 M22,12h-9c-1.105,0-2,0.895-2,2v5 M33,10h-7v3h7V10z M33,28h-7v3h7V28z M39,16h-9v3h9V16z M39,22h-9 v3h9V22z M39,34h-9v3h9V34z"/></g></g></svg>