<svg xmlns="http://www.w3.org/2000/svg" xmlns:xlink="http://www.w3.org/1999/xlink" x="0" y="0" version="1.1" viewBox="0 0 48 48" xml:space="preserve" style="enable-background:new 0 0 48 48"><g id="optimize--cash-flow--01"><g id="optimize--cash-flow--01_1_"><g><rect style="fill:none;stroke:#000;stroke-width:.72;stroke-linejoin:round;stroke-miterlimit:10" width="20" height="10" x="9" y="11"/><circle style="fill:none;stroke:#000;stroke-width:.72;stroke-linejoin:round;stroke-miterlimit:10" cx="19" cy="16" r="3"/><path style="fill:none;stroke:#000;stroke-width:.72;stroke-linejoin:round;stroke-miterlimit:10" d="M26,21 c0-1.657,1.343-3,3-3"/><path style="fill:none;stroke:#000;stroke-width:.72;stroke-linejoin:round;stroke-miterlimit:10" d="M29,14 c-1.657,0-3-1.343-3-3"/><path style="fill:none;stroke:#000;stroke-width:.72;stroke-linejoin:round;stroke-miterlimit:10" d="M12,11 c0,1.657-1.343,3-3,3"/><path style="fill:none;stroke:#000;stroke-width:.72;stroke-linejoin:round;stroke-miterlimit:10" d="M9,18 c1.657,0,3,1.343,3,3"/></g><g><rect style="fill:none;stroke:#000;stroke-width:.72;stroke-linejoin:round;stroke-miterlimit:10" width="20" height="10" x="19" y="27"/><circle style="fill:none;stroke:#000;stroke-width:.72;stroke-linejoin:round;stroke-miterlimit:10" cx="29" cy="32" r="3"/><path style="fill:none;stroke:#000;stroke-width:.72;stroke-linejoin:round;stroke-miterlimit:10" d="M36,37 c0-1.657,1.343-3,3-3"/><path style="fill:none;stroke:#000;stroke-width:.72;stroke-linejoin:round;stroke-miterlimit:10" d="M39,30 c-1.657,0-3-1.343-3-3"/><path style="fill:none;stroke:#000;stroke-width:.72;stroke-linejoin:round;stroke-miterlimit:10" d="M22,27 c0,1.657-1.343,3-3,3"/><path style="fill:none;stroke:#000;stroke-width:.72;stroke-linejoin:round;stroke-miterlimit:10" d="M19,34 c1.657,0,3,1.343,3,3"/></g><g><line style="fill:none;stroke:#000;stroke-width:.72;stroke-miterlimit:10" x1="9" x2="16" y1="32" y2="32"/><polyline style="fill:none;stroke:#000;stroke-width:.72;stroke-miterlimit:10" points="12 29 9 32 12 35"/></g><g><line style="fill:none;stroke:#000;stroke-width:.72;stroke-miterlimit:10" x1="39" x2="32" y1="16" y2="16"/><polyline style="fill:none;stroke:#000;stroke-width:.72;stroke-miterlimit:10" points="36 19 39 16 36 13"/></g></g></g></svg>