<svg xmlns="http://www.w3.org/2000/svg" xmlns:xlink="http://www.w3.org/1999/xlink" x="0" y="0" version="1.1" viewBox="0 0 48 48" xml:space="preserve" style="enable-background:new 0 0 48 48"><g id="qr-code"><g id="qr-code_1_"><rect style="fill:none;stroke:#000;stroke-width:.72;stroke-linejoin:round;stroke-miterlimit:10" width="10" height="10" x="12" y="12"/><rect width="4" height="4" x="15" y="15"/><rect style="fill:none;stroke:#000;stroke-width:.72;stroke-linejoin:round;stroke-miterlimit:10" width="10" height="10" x="12" y="26"/><rect width="4" height="4" x="15" y="29"/><rect width="2" height="2" x="32" y="34"/><rect width="2" height="2" x="34" y="26"/><rect width="2" height="4" x="34" y="30"/><rect width="4" height="2" x="26" y="26"/><rect width="2" height="2" x="26" y="30"/><rect width="2" height="2" x="26" y="34"/><polygon points="34 28 30 28 30 32 28 32 28 34 32 34 32 30 34 30"/><rect style="fill:none;stroke:#000;stroke-width:.72;stroke-linejoin:round;stroke-miterlimit:10" width="10" height="10" x="26" y="12"/><rect width="4" height="4" x="29" y="15"/></g></g></svg>