<svg xmlns="http://www.w3.org/2000/svg" xmlns:xlink="http://www.w3.org/1999/xlink" x="0" y="0" version="1.1" viewBox="0 0 48 48" xml:space="preserve" style="enable-background:new 0 0 48 48"><g id="research"><g id="research_1_"><path style="fill:none;stroke:#000;stroke-width:.72;stroke-linejoin:round;stroke-miterlimit:10" d="M21,33 c-6.627,0-12-5.373-12-12S14.373,9,21,9c2.612,0,5.03,0.835,7,2.252"/><circle cx="23" cy="13" r="1"/><circle cx="15" cy="27" r="1"/><circle cx="18" cy="15" r=".5"/><circle cx="19" cy="20" r=".5"/><circle cx="14" cy="18" r=".5"/><circle style="fill:none;stroke:#000;stroke-width:.72;stroke-linecap:round;stroke-linejoin:round;stroke-miterlimit:10" cx="18" cy="15" r="2"/><circle style="fill:none;stroke:#000;stroke-width:.72;stroke-linecap:round;stroke-linejoin:round;stroke-miterlimit:10" cx="13.6" cy="22.4" r="1.6"/><path id="microscope_2_" d="M33.5,33.5H39V39H17l3.667-3.666H33.5V33.5z M29.833,17.002c-1.519,0-2.75,1.231-2.75,2.75s1.231,2.75,2.75,2.75 c1.519,0,2.75-1.231,2.75-2.75S31.352,17.002,29.833,17.002z M18.41,28.048l4.763,2.75l0.917-1.588l-4.763-2.75L18.41,28.048z M30.993,17.253l3.179-5.506L29.409,9l-9.166,15.873l4.763,2.75l3.249-5.627 M21.831,25.789l-0.917,1.588l1.588,0.917l0.917-1.588 L21.831,25.789z M35.939,33.501c0.78-1.348,1.226-2.913,1.226-4.583c0-3.486-1.946-6.518-4.812-8.068" style="fill:none;stroke:#000;stroke-width:.72;stroke-linecap:round;stroke-linejoin:round;stroke-miterlimit:10"/></g></g></svg>