<svg xmlns="http://www.w3.org/2000/svg" xmlns:xlink="http://www.w3.org/1999/xlink" x="0" y="0" version="1.1" viewBox="0 0 48 48" xml:space="preserve" style="enable-background:new 0 0 48 48"><g id="stem--leaf--plot"><path id="stem-leaf-plot" d="M17,9v30 M12,12 c-1.104,0-2,0.896-2,2c0,1.104,0.896,2,2,2c1.104,0,2-0.896,2-2C14,12.896,13.104,12,12,12z M12,22c-1.104,0-2,0.896-2,2 c0,1.104,0.896,2,2,2c1.104,0,2-0.896,2-2C14,22.896,13.104,22,12,22z M12,32c-1.104,0-2,0.896-2,2c0,1.104,0.896,2,2,2 c1.104,0,2-0.896,2-2C14,32.896,13.104,32,12,32z M22,12c-1.104,0-2,0.896-2,2c0,1.104,0.896,2,2,2c1.104,0,2-0.896,2-2 C24,12.896,23.104,12,22,12z M22,22c-1.104,0-2,0.896-2,2c0,1.104,0.896,2,2,2c1.104,0,2-0.896,2-2C24,22.896,23.104,22,22,22z M22,32c-1.104,0-2,0.896-2,2c0,1.104,0.896,2,2,2c1.104,0,2-0.896,2-2C24,32.896,23.104,32,22,32z M29,12c-1.104,0-2,0.896-2,2 c0,1.104,0.896,2,2,2c1.104,0,2-0.896,2-2C31,12.896,30.104,12,29,12z M29,22c-1.104,0-2,0.896-2,2c0,1.104,0.896,2,2,2 c1.104,0,2-0.896,2-2C31,22.896,30.104,22,29,22z M29,32c-1.104,0-2,0.896-2,2c0,1.104,0.896,2,2,2c1.104,0,2-0.896,2-2 C31,32.896,30.104,32,29,32z M36,22c-1.104,0-2,0.896-2,2c0,1.104,0.896,2,2,2c1.104,0,2-0.896,2-2C38,22.896,37.104,22,36,22z" style="fill:none;stroke:#000;stroke-width:.72;stroke-miterlimit:10"/></g></svg>