<svg xmlns="http://www.w3.org/2000/svg" xmlns:xlink="http://www.w3.org/1999/xlink" x="0" y="0" version="1.1" viewBox="0 0 48 48" xml:space="preserve" style="enable-background:new 0 0 48 48"><g id="systems-devops--provision"><path id="systems-devops--provision_1_" d="M24,38 l-12-7V17 M36,23v-6l-12-7l-4,2.325V21 M16,14v10 M35.5,33c-1.381,0-2.5,1.119-2.5,2.5c0,1.381,1.119,2.5,2.5,2.5 s2.5-1.119,2.5-2.5C38,34.119,36.881,33,35.5,33z M30.828,30.828l2.904,2.904 M28,24c-2.209,0-4,1.791-4,4s1.791,4,4,4s4-1.791,4-4 S30.209,24,28,24z" style="fill:none;stroke:#000;stroke-width:.72;stroke-linejoin:round"/></g></svg>