<svg xmlns="http://www.w3.org/2000/svg" xmlns:xlink="http://www.w3.org/1999/xlink" x="0" y="0" version="1.1" viewBox="0 0 48 48" xml:space="preserve" style="enable-background:new 0 0 48 48"><g id="teammates"><path id="teammates_1_" d="M24,13v5l3.268,0c0.346-0.598,0.992-1,1.732-1c1.105,0,2,0.895,2,2s-0.895,2-2,2c-0.74,0-1.387-0.402-1.732-1L26,20h-2v7l-3.268,0 c-0.346-0.598-0.992-1-1.732-1c-1.105,0-2,0.895-2,2s0.895,2,2,2c0.74,0,1.387-0.402,1.732-1L24,29v7 M30,36v-3.52 c2.284,0,4.733-1.853,4.733-4.137l0-2.069h1.642c0.513,0,0.846-0.539,0.617-0.997l-2.259-4.174C34.733,17,32,13,24,13 s-10.733,4-10.733,8.103l-2.259,4.174c-0.229,0.458,0.104,0.997,0.617,0.997h1.642l0,2.069c0,2.284,2.449,4.137,4.733,4.137V36" style="fill:none;stroke:#000;stroke-width:.72;stroke-linejoin:round;stroke-miterlimit:10"/></g></svg>