<svg xmlns="http://www.w3.org/2000/svg" xmlns:xlink="http://www.w3.org/1999/xlink" x="0" y="0" version="1.1" viewBox="0 0 48 48" xml:space="preserve" style="enable-background:new 0 0 48 48"><g id="x-ray--01"><path id="x-ray--01_1_" d="M15,25c1.56-2.16,3.905-3.75,6.525-4.37c-2.12-0.95-3.61-3.08-3.61-5.55c0-3.36,2.72-6.08,6.08-6.08s6.08,2.72,6.08,6.08 c0,2.47-1.49,4.6-3.61,5.55C29.085,21.25,31.44,22.84,33,25 M35,25H13v14h22V25z M24,27v10 M29,33.5V33c0-0.552-0.448-1-1-1h-8 c-0.552,0-1,0.448-1,1v0.5 M29,30.5V30c0-0.552-0.448-1-1-1h-8c-0.552,0-1,0.448-1,1v0.5 M28,36.5V36c0-0.552-0.448-1-1-1h-6 c-0.552,0-1,0.448-1,1v0.5" style="fill:none;stroke:#000;stroke-width:.72;stroke-linejoin:round;stroke-miterlimit:10"/></g></svg>